<svg width="28" height="34" viewBox="0 0 28 34" fill="none" xmlns="http://www.w3.org/2000/svg">
<path d="M17.9194 0.919039C17.5444 0.543967 17.0357 0.333252 16.5052 0.333252H4.00033C3.11627 0.333252 2.26842 0.684441 1.6433 1.30956C1.01818 1.93468 0.666992 2.78253 0.666992 3.66659V30.3333C0.666992 31.2173 1.01818 32.0652 1.6433 32.6903C2.26842 33.3154 3.11627 33.6666 4.00033 33.6666H24.0003C24.8844 33.6666 25.7322 33.3154 26.3573 32.6903C26.9825 32.0652 27.3337 31.2173 27.3337 30.3333V11.1617C27.3337 10.6312 27.1229 10.1225 26.7479 9.74747L17.9194 0.919039ZM9.83033 23.9833C9.31532 24.4666 8.55532 24.6833 7.67032 24.6833C7.49873 24.6851 7.32721 24.6751 7.15699 24.6533V27.0299H5.66699V20.4699C6.33942 20.3696 7.01886 20.3239 7.69866 20.3333C8.62699 20.3333 9.28699 20.5099 9.73199 20.8649C10.1553 21.2016 10.442 21.7533 10.442 22.4033C10.4403 23.0566 10.2237 23.6083 9.83033 23.9833ZM16.1753 26.2416C15.4753 26.8233 14.4103 27.0999 13.1087 27.0999C12.3287 27.0999 11.777 27.0499 11.402 26.9999V20.4716C12.0747 20.3734 12.7539 20.3272 13.4337 20.3333C14.6953 20.3333 15.5153 20.5599 16.1553 21.0433C16.847 21.5566 17.2803 22.3749 17.2803 23.5499C17.2803 24.8216 16.8153 25.6999 16.1753 26.2416ZM22.3337 21.6166H19.7803V23.1349H22.167V24.3583H19.7803V27.0316H18.2703V20.3833H22.3337V21.6166ZM17.3337 11.9999H15.667V3.66659L24.0003 11.9999H17.3337Z" fill="#DB291F"/>
</svg>
