<svg width="42" height="42" viewBox="0 0 42 42" fill="none" xmlns="http://www.w3.org/2000/svg">
<circle cx="21" cy="21" r="21" fill="#3366FF"/>
<path d="M26.0586 18.0917L18.9252 14.525C14.1336 12.125 12.1669 14.0917 14.5669 18.8833L15.2919 20.3333C15.5002 20.7583 15.5002 21.25 15.2919 21.675L14.5669 23.1167C12.1669 27.9083 14.1252 29.875 18.9252 27.475L26.0586 23.9083C29.2586 22.3083 29.2586 19.6917 26.0586 18.0917ZM23.3669 21.625H18.8669C18.5252 21.625 18.2419 21.3417 18.2419 21C18.2419 20.6583 18.5252 20.375 18.8669 20.375H23.3669C23.7086 20.375 23.9919 20.6583 23.9919 21C23.9919 21.3417 23.7086 21.625 23.3669 21.625Z" fill="white"/>
</svg>
